# xmcd
#
# Track frame offsets:
#        150
#        20106
#        36312
#        52636
#        60600
#        77206
#        93343
#        120548
#        139675
#        149627
#        164299
#        176310
#        205739
#        225530
#        247467
#        262617
#        277908
#        295391
#
# Disc length: 4107 seconds
#
# Revision: 2
# Processed by: cddbd v1.5PL3 Copyright (c) Steve Scherf et al.
# Submitted via: ExactAudioCopy v0.95a5
#
DISCID=fe100912
DTITLE=SIINA RINGO - Utaite Myouri ~SonoIti~
DYEAR=1900
DGENRE=JPop
TTITLE0=Haiiro No Hitomi
TTITLE1=More
TTITLE2=Tiisana Konomi
TTITLE3=I Wanna Be Loved By You
TTITLE4=Siroi Kohato
TTITLE5=Love is Blind
TTITLE6=Momen No Hankatiihu
TTITLE7=Yer Blues
TTITLE8=Nobara
TTITLE9=Kimi Wo Aisu
TTITLE10=Jazz a Go Go
TTITLE11=Kareha
TTITLE12=I Won't Last a Day Without You
TTITLE13=Kuroi Orufe
TTITLE14=Mr.Wonderful
TTITLE15=Tamanegi No HappySong
TTITLE16=Staring Over
TTITLE17=Komoriuta
EXTD=
EXTT0=
EXTT1=
EXTT2=
EXTT3=
EXTT4=
EXTT5=
EXTT6=
EXTT7=
EXTT8=
EXTT9=
EXTT10=
EXTT11=
EXTT12=
EXTT13=
EXTT14=
EXTT15=
EXTT16=
EXTT17=
PLAYORDER=
